<?xml version="1.0" encoding="UTF-8"?>
<svg id="Layer_2" data-name="Layer 2" xmlns="http://www.w3.org/2000/svg" viewBox="0 0 403.16 265.68">
  <defs>
    <style>
      .cls-1 {
        fill: #d6b459;
      }

      .cls-2 {
        fill: #f5f5f4;
      }
    </style>
  </defs>
  <g id="Layer_1-2" data-name="Layer 1">
    <g>
      <path class="cls-1" d="M176.97,0v48.22h17.51c.1,0,1.42,1.32,1.42,1.42v43.49c0,.1-1.32,1.42-1.42,1.42h-17.51v82.73c0,2.69-2.63,12.15-3.54,15.37-12.1,43.1-50.29,71.4-94.89,73.03v-44.44c20.37-1.75,39-12.24,47.99-31,1.62-3.39,5.95-15.48,5.95-18.63v-77.06H0v-46.33h132.49V0h44.48Z"/>
      <path class="cls-2" d="M270.67,0v48.22h132.49v46.33h-132.49c1.84,26.8-3.43,58.06,2.36,84.16,5.62,25.33,27.02,41.79,52.53,43.48v43.49c-34.91.13-69.51-19.89-86.28-50.42-20.4-37.12-10.9-81.1-13.09-121.65-1.02-.36-2.07.94-2.36.94h-15.62v-46.33h17.98V0h44.48Z"/>
    </g>
  </g>
</svg>