<?xml version="1.0" encoding="UTF-8"?>
<svg id="Layer_2" data-name="Layer 2" xmlns="http://www.w3.org/2000/svg" viewBox="0 0 909.16 201.51">
  <defs>
    <style>
      .cls-1 {
        fill: #d6b459;
      }

      .cls-2, .cls-3 {
        fill: #f5f5f4;
      }

      .cls-3 {
        stroke: #f5f5f4;
        stroke-miterlimit: 10;
        stroke-width: 2px;
      }
    </style>
  </defs>
  <g id="Layer_1-2" data-name="Layer 1">
    <g>
      <path class="cls-1" d="M43.82,6.28c69.51-7.68,76.77,90.6,15.78,96.99C-15.08,111.1-18.71,13.19,43.82,6.28ZM27.09,78.64c12.98,13.68,38.05,12.75,49.47-2.49,21.01-28.03-8.58-66.83-41.39-50.67-18.85,9.28-22.22,38.26-8.08,53.16Z"/>
      <path class="cls-1" d="M134.57,91.81v34.8h-17.4V32.07c0-2.24,16.78-2.38,17.41-1.75.87.87-1.59,9.67,1.14,10.44,2.42-6.78,12.37-11.04,19.11-11.64,52.38-4.66,51.52,81.61-2.17,74.19-7.61-1.05-13.15-6.26-18.08-11.5ZM170.11,49.31c-11.04-11.1-31.76-6.08-35.03,9.95-7.79,38.19,44.49,40.08,41.31,4.06-.42-4.71-2.99-10.7-6.28-14.01Z"/>
      <path class="cls-2" d="M371.24,30.33v42.34c0,1.55,2.54,8.64,3.66,10.26,7.36,10.68,27.94,4.76,29.91-8.02,1.13-7.29-1.45-40.59.58-43.5,1.64-2.36,13.47-.51,16.9-1.09v71.93h-16.24c-.52,0,.39-9.14-.01-10.44-5.15,5.68-11.19,10.7-19.13,11.6-43.04,4.92-31.67-44.01-32.91-71.19,1.21-3.7,13.7-1.19,17.24-1.9Z"/>
      <path class="cls-2" d="M494.06,35.11c1.17,1.87-3.95,13.48-5.14,13.74-.86.19-7.42-3.43-9.77-4.05-6.32-1.68-28.6-3.39-21.94,7.97,5.75,9.81,35.71,4.95,39.04,24.81,5.32,31.69-42.92,31.74-59.53,16.57-.94-1.47,5.83-12.66,7.02-12.66,6.23,7.82,40.07,14.35,35.17-1.64-2.54-8.3-35.65-4.53-38.95-23.71-5.24-30.49,35.03-31.72,54.09-21.04Z"/>
      <path class="cls-2" d="M281.91,12.92v18.56h20.88c-.23,2.48,1.02,13.92-1.74,13.92h-19.14v36.54c0,.41,2.72,4.2,3.39,4.73,6.2,4.93,14.98-1.86,16.32-.68l3.48,12.71c-9.83,5.41-28.3,8.35-35.77-1.87-.75-1.03-4.82-9.68-4.82-10.26v-41.18c0-.52-10.22.92-10.46-.67.39-2.13-.47-12.77.01-13.26.43-.43,8.61.31,10.45,0V12.92h17.4Z"/>
      <path class="cls-1" d="M228.54,12.92v18.56h20.88v13.92h-20.88v36.54c0,.41,2.72,4.2,3.39,4.73,6.18,4.91,15.11-1.88,16.33-.68l3.49,12.75c-10.58,5.8-31.49,8.27-37.78-4.55-.71-1.44-2.83-7.7-2.83-8.77v-40.02c0-.52-10.22.92-10.46-.67.39-2.13-.47-12.77.01-13.26.43-.43,8.61.31,10.45,0V12.92h17.4Z"/>
      <path class="cls-2" d="M334.11,102.25h-17.4V31.49c2.83,1.27,17.4-3.05,17.4.58v70.19Z"/>
      <path class="cls-2" d="M322.18.4c16.48-3.71,18.66,19.24,4.11,20.4-13.29,1.06-15.75-17.78-4.11-20.4Z"/>
    </g>
    <g>
      <path class="cls-3" d="M13.87,183.78l-5.25,15.9H1.88l17.17-50.55h7.87l17.25,50.55h-6.97l-5.4-15.9H13.87ZM30.45,178.68l-4.95-14.55c-1.12-3.3-1.88-6.3-2.62-9.22h-.15c-.75,3-1.58,6.08-2.55,9.15l-4.95,14.62h15.22Z"/>
      <path class="cls-3" d="M81.9,189.78c0,3.75.08,7.05.3,9.9h-5.85l-.38-5.92h-.15c-1.72,2.92-5.55,6.75-12,6.75-5.7,0-12.52-3.15-12.52-15.9v-21.22h6.6v20.1c0,6.9,2.1,11.55,8.1,11.55,4.42,0,7.5-3.08,8.7-6,.38-.98.6-2.17.6-3.38v-22.27h6.6v26.4Z"/>
      <path class="cls-3" d="M101.85,152.96v10.42h9.45v5.03h-9.45v19.57c0,4.5,1.27,7.05,4.95,7.05,1.73,0,3-.23,3.83-.45l.3,4.95c-1.27.53-3.3.9-5.85.9-3.08,0-5.55-.97-7.12-2.78-1.88-1.95-2.55-5.17-2.55-9.45v-19.8h-5.62v-5.03h5.62v-8.7l6.45-1.72Z"/>
      <path class="cls-3" d="M152.17,181.23c0,13.42-9.3,19.27-18.07,19.27-9.82,0-17.4-7.2-17.4-18.67,0-12.15,7.95-19.27,18-19.27s17.47,7.57,17.47,18.67ZM123.37,181.61c0,7.95,4.58,13.95,11.02,13.95s11.02-5.92,11.02-14.1c0-6.15-3.07-13.95-10.87-13.95s-11.17,7.2-11.17,14.1Z"/>
      <path class="cls-3" d="M161.55,173.21c0-3.75-.08-6.83-.3-9.83h5.77l.3,5.85h.22c2.02-3.45,5.4-6.67,11.4-6.67,4.95,0,8.7,3,10.27,7.27h.15c1.12-2.03,2.55-3.6,4.05-4.72,2.17-1.65,4.57-2.55,8.02-2.55,4.8,0,11.92,3.15,11.92,15.75v21.37h-6.45v-20.55c0-6.97-2.55-11.17-7.87-11.17-3.75,0-6.67,2.77-7.8,6-.3.9-.53,2.1-.53,3.3v22.42h-6.45v-21.75c0-5.77-2.55-9.97-7.58-9.97-4.12,0-7.12,3.3-8.17,6.6-.38.97-.52,2.1-.52,3.22v21.9h-6.45v-26.47Z"/>
      <path class="cls-3" d="M245.25,199.68l-.53-4.58h-.22c-2.03,2.85-5.92,5.4-11.1,5.4-7.35,0-11.1-5.17-11.1-10.42,0-8.77,7.8-13.57,21.82-13.5v-.75c0-3-.83-8.4-8.25-8.4-3.38,0-6.9,1.05-9.45,2.7l-1.5-4.35c3-1.95,7.35-3.22,11.92-3.22,11.1,0,13.8,7.57,13.8,14.85v13.58c0,3.15.15,6.22.6,8.7h-6ZM244.27,181.16c-7.2-.15-15.37,1.12-15.37,8.17,0,4.27,2.85,6.3,6.22,6.3,4.72,0,7.72-3,8.77-6.08.23-.67.38-1.42.38-2.1v-6.3Z"/>
      <path class="cls-3" d="M270,152.96v10.42h9.45v5.03h-9.45v19.57c0,4.5,1.27,7.05,4.95,7.05,1.73,0,3-.23,3.83-.45l.3,4.95c-1.27.53-3.3.9-5.85.9-3.08,0-5.55-.97-7.12-2.78-1.88-1.95-2.55-5.17-2.55-9.45v-19.8h-5.62v-5.03h5.62v-8.7l6.45-1.72Z"/>
      <path class="cls-3" d="M295.27,153.18c.08,2.25-1.57,4.05-4.2,4.05-2.33,0-3.98-1.8-3.98-4.05s1.73-4.12,4.12-4.12,4.05,1.8,4.05,4.12ZM287.92,199.68v-36.3h6.6v36.3h-6.6Z"/>
      <path class="cls-3" d="M302.4,195.86l16.42-21.37c1.58-1.95,3.08-3.67,4.72-5.62v-.15h-19.65v-5.33h27.67l-.07,4.12-16.2,21.07c-1.5,2.03-3,3.83-4.65,5.7v.15h21.22v5.25h-29.47v-3.83Z"/>
      <path class="cls-3" d="M359.77,199.68l-.53-4.58h-.22c-2.03,2.85-5.92,5.4-11.1,5.4-7.35,0-11.1-5.17-11.1-10.42,0-8.77,7.8-13.57,21.82-13.5v-.75c0-3-.83-8.4-8.25-8.4-3.38,0-6.9,1.05-9.45,2.7l-1.5-4.35c3-1.95,7.35-3.22,11.92-3.22,11.1,0,13.8,7.57,13.8,14.85v13.58c0,3.15.15,6.22.6,8.7h-6ZM358.8,181.16c-7.2-.15-15.37,1.12-15.37,8.17,0,4.27,2.85,6.3,6.22,6.3,4.72,0,7.72-3,8.77-6.08.23-.67.38-1.42.38-2.1v-6.3Z"/>
      <path class="cls-3" d="M375.3,195.78c0-2.78,1.88-4.73,4.5-4.73s4.42,1.95,4.42,4.73-1.72,4.72-4.5,4.72c-2.62,0-4.42-2.03-4.42-4.72Z"/>
      <path class="cls-3" d="M445.94,198.03c-2.4,1.2-7.2,2.4-13.35,2.4-14.25,0-24.97-9-24.97-25.57s10.72-26.55,26.4-26.55c6.3,0,10.27,1.35,12,2.25l-1.58,5.33c-2.47-1.2-6-2.1-10.2-2.1-11.85,0-19.72,7.58-19.72,20.85,0,12.37,7.12,20.32,19.42,20.32,3.98,0,8.03-.83,10.65-2.1l1.35,5.17Z"/>
      <path class="cls-3" d="M486.97,181.23c0,13.42-9.3,19.27-18.07,19.27-9.82,0-17.4-7.2-17.4-18.67,0-12.15,7.95-19.27,18-19.27s17.47,7.57,17.47,18.67ZM458.17,181.61c0,7.95,4.58,13.95,11.02,13.95s11.02-5.92,11.02-14.1c0-6.15-3.07-13.95-10.87-13.95s-11.17,7.2-11.17,14.1Z"/>
      <path class="cls-3" d="M496.34,173.21c0-3.75-.08-6.83-.3-9.83h5.85l.38,6h.15c1.8-3.45,6-6.82,12-6.82,5.03,0,12.82,3,12.82,15.45v21.67h-6.6v-20.92c0-5.85-2.17-10.72-8.4-10.72-4.35,0-7.72,3.07-8.85,6.75-.3.83-.45,1.95-.45,3.08v21.82h-6.6v-26.47Z"/>
      <path class="cls-3" d="M546.67,152.96v10.42h9.45v5.03h-9.45v19.57c0,4.5,1.27,7.05,4.95,7.05,1.73,0,3-.23,3.83-.45l.3,4.95c-1.27.53-3.3.9-5.85.9-3.08,0-5.55-.97-7.12-2.78-1.88-1.95-2.55-5.17-2.55-9.45v-19.8h-5.62v-5.03h5.62v-8.7l6.45-1.72Z"/>
      <path class="cls-3" d="M564.59,174.71c0-4.28-.08-7.95-.3-11.33h5.77l.23,7.12h.3c1.65-4.88,5.62-7.95,10.05-7.95.75,0,1.27.07,1.88.22v6.22c-.68-.15-1.35-.22-2.25-.22-4.65,0-7.95,3.52-8.85,8.47-.15.9-.3,1.95-.3,3.07v19.35h-6.53v-24.97Z"/>
      <path class="cls-3" d="M622.27,181.23c0,13.42-9.3,19.27-18.07,19.27-9.82,0-17.4-7.2-17.4-18.67,0-12.15,7.95-19.27,18-19.27s17.47,7.57,17.47,18.67ZM593.47,181.61c0,7.95,4.58,13.95,11.02,13.95s11.02-5.92,11.02-14.1c0-6.15-3.07-13.95-10.87-13.95s-11.17,7.2-11.17,14.1Z"/>
      <path class="cls-3" d="M631.64,146.43h6.6v53.25h-6.6v-53.25Z"/>
      <path class="cls-3" d="M670.49,199.68l-.53-4.58h-.22c-2.03,2.85-5.92,5.4-11.1,5.4-7.35,0-11.1-5.17-11.1-10.42,0-8.77,7.8-13.57,21.82-13.5v-.75c0-3-.83-8.4-8.25-8.4-3.38,0-6.9,1.05-9.45,2.7l-1.5-4.35c3-1.95,7.35-3.22,11.92-3.22,11.1,0,13.8,7.57,13.8,14.85v13.58c0,3.15.15,6.22.6,8.7h-6ZM669.52,181.16c-7.2-.15-15.37,1.12-15.37,8.17,0,4.27,2.85,6.3,6.22,6.3,4.72,0,7.72-3,8.77-6.08.23-.67.38-1.42.38-2.1v-6.3Z"/>
      <path class="cls-3" d="M686.02,195.78c0-2.78,1.88-4.73,4.5-4.73s4.42,1.95,4.42,4.73-1.72,4.72-4.5,4.72c-2.62,0-4.42-2.03-4.42-4.72Z"/>
      <path class="cls-3" d="M756.66,198.03c-2.4,1.2-7.2,2.4-13.35,2.4-14.25,0-24.97-9-24.97-25.57s10.72-26.55,26.4-26.55c6.3,0,10.27,1.35,12,2.25l-1.58,5.33c-2.47-1.2-6-2.1-10.2-2.1-11.85,0-19.72,7.58-19.72,20.85,0,12.37,7.12,20.32,19.42,20.32,3.98,0,8.03-.83,10.65-2.1l1.35,5.17Z"/>
      <path class="cls-3" d="M765.44,174.71c0-4.28-.08-7.95-.3-11.33h5.77l.23,7.12h.3c1.65-4.88,5.62-7.95,10.05-7.95.75,0,1.27.07,1.88.22v6.22c-.68-.15-1.35-.22-2.25-.22-4.65,0-7.95,3.52-8.85,8.47-.15.9-.3,1.95-.3,3.07v19.35h-6.53v-24.97Z"/>
      <path class="cls-3" d="M793.94,182.73c.15,8.92,5.85,12.6,12.45,12.6,4.73,0,7.58-.83,10.05-1.88l1.12,4.72c-2.32,1.05-6.3,2.25-12.07,2.25-11.17,0-17.85-7.35-17.85-18.3s6.45-19.57,17.02-19.57c11.85,0,15,10.42,15,17.1,0,1.35-.15,2.4-.23,3.08h-25.5ZM813.29,178.01c.08-4.2-1.73-10.72-9.15-10.72-6.67,0-9.6,6.15-10.12,10.72h19.27Z"/>
      <path class="cls-3" d="M854.76,198.33c-1.72.9-5.55,2.1-10.42,2.1-10.95,0-18.07-7.42-18.07-18.52s7.65-19.27,19.5-19.27c3.9,0,7.35.98,9.15,1.88l-1.5,5.1c-1.58-.9-4.05-1.72-7.65-1.72-8.32,0-12.82,6.15-12.82,13.72,0,8.4,5.4,13.57,12.6,13.57,3.75,0,6.22-.97,8.1-1.8l1.12,4.95Z"/>
      <path class="cls-3" d="M866.76,182.73c.15,8.92,5.85,12.6,12.45,12.6,4.72,0,7.57-.83,10.05-1.88l1.12,4.72c-2.32,1.05-6.3,2.25-12.07,2.25-11.17,0-17.85-7.35-17.85-18.3s6.45-19.57,17.02-19.57c11.85,0,15,10.42,15,17.1,0,1.35-.15,2.4-.23,3.08h-25.5ZM886.11,178.01c.08-4.2-1.73-10.72-9.15-10.72-6.67,0-9.6,6.15-10.12,10.72h19.27Z"/>
      <path class="cls-3" d="M899.24,195.78c0-2.78,1.88-4.73,4.5-4.73s4.42,1.95,4.42,4.73-1.72,4.72-4.5,4.72c-2.62,0-4.42-2.03-4.42-4.72Z"/>
    </g>
  </g>
</svg>