<?xml version="1.0" encoding="utf-8"?>
<svg xmlns="http://www.w3.org/2000/svg" xmlns:xlink="http://www.w3.org/1999/xlink" width="800" height="800" viewBox="0 0 800 800">
  <path fill="#F9F7F2" transform="scale(4.34783 4.34783)" d="M68.4519 47.1403C72.5906 47.398 79.4971 47.1824 83.8142 47.1962L83.8328 63.6635C85.9527 63.6279 88.1706 63.6746 90.2996 63.6916C90.5186 68.5154 90.3985 74.8517 90.3061 79.7323C88.1403 79.7911 85.9748 79.8627 83.8098 79.947C83.6595 88.7158 84.0055 97.5865 83.7861 106.351C83.6079 113.47 80.1845 120.893 75.4996 126.196C68.834 133.74 60.0537 137.247 50.1959 137.848C50.2006 133.25 50.3891 126.749 50.0754 122.306C52.4332 122.147 54.4237 121.528 56.6326 120.795C59.2153 119.672 61.21 118.366 63.1986 116.364C69.0825 110.442 68.3449 103.435 68.3421 95.8725C68.3525 90.5302 68.3342 85.1878 68.2872 79.8457L23.3423 79.7986C23.2478 74.5055 23.3545 68.9996 23.32 63.6793C38.0936 63.4494 53.491 63.6447 68.3109 63.6707C68.3102 58.5238 68.1514 52.1883 68.4519 47.1403Z"/>
  <path fill="#D4AF37" transform="scale(4.34783 4.34783)" d="M100.189 47.2148L115.545 47.2013L115.622 63.7145L160.543 63.6924C160.661 68.9152 160.555 74.5303 160.553 79.7837C145.663 79.8725 130.62 79.6063 115.75 79.8456C115.875 90.4102 113.792 105.621 119.095 114.237C119.155 114.328 119.218 114.418 119.283 114.506C123.308 120.03 127.858 121.734 134.3 122.767L134.278 137.917C117.593 136.897 104.34 127.459 101.054 110.361C100.062 105.201 100.174 100.567 100.169 95.3441L100.171 79.7541L94.2011 79.8305C94.1689 74.4562 94.1647 69.0818 94.1882 63.7075C96.1561 63.6793 98.1921 63.7054 100.166 63.7077C100.264 58.292 100.187 52.6483 100.189 47.2148Z"/>
</svg>
