<?xml version="1.0" encoding="UTF-8"?>
<svg id="Layer_2" data-name="Layer 2" xmlns="http://www.w3.org/2000/svg" viewBox="0 0 496.65 454.29">
  <defs>
    <style>
      .cls-1 {
        fill: #d6b459;
      }

      .cls-2 {
        fill: #f5f5f4;
      }
    </style>
  </defs>
  <g id="Layer_1-2" data-name="Layer 1">
    <g>
      <path class="cls-1" d="M43.82,333.95c69.51-7.68,76.77,90.6,15.78,96.99-74.68,7.83-78.31-90.08-15.78-96.99ZM27.09,406.31c12.98,13.68,38.05,12.75,49.47-2.49,21.01-28.03-8.58-66.83-41.39-50.67-18.85,9.28-22.22,38.26-8.08,53.16Z"/>
      <path class="cls-1" d="M134.57,419.48v34.8h-17.4v-94.55c0-2.24,16.78-2.38,17.41-1.75.87.87-1.59,9.67,1.14,10.44,2.42-6.78,12.37-11.04,19.11-11.64,52.38-4.66,51.52,81.61-2.17,74.19-7.61-1.05-13.15-6.26-18.08-11.5ZM170.11,376.98c-11.04-11.1-31.76-6.08-35.03,9.95-7.79,38.19,44.49,40.08,41.31,4.06-.42-4.71-2.99-10.7-6.28-14.01Z"/>
      <path class="cls-2" d="M371.24,358v42.34c0,1.55,2.54,8.64,3.66,10.26,7.36,10.68,27.94,4.76,29.91-8.02,1.13-7.29-1.45-40.59.58-43.5,1.64-2.36,13.47-.51,16.9-1.09v71.93h-16.24c-.52,0,.39-9.14-.01-10.44-5.15,5.68-11.19,10.7-19.13,11.6-43.04,4.92-31.67-44.01-32.91-71.19,1.21-3.7,13.7-1.19,17.24-1.9Z"/>
      <path class="cls-2" d="M494.06,362.79c1.17,1.87-3.95,13.48-5.14,13.74-.86.19-7.42-3.43-9.77-4.05-6.32-1.68-28.6-3.39-21.94,7.97,5.75,9.81,35.71,4.95,39.04,24.81,5.32,31.69-42.92,31.74-59.53,16.57-.94-1.47,5.83-12.66,7.02-12.66,6.23,7.82,40.07,14.35,35.17-1.64-2.54-8.3-35.65-4.53-38.95-23.71-5.24-30.49,35.03-31.72,54.09-21.04Z"/>
      <path class="cls-2" d="M281.91,340.6v18.56h20.88c-.23,2.48,1.02,13.92-1.74,13.92h-19.14v36.54c0,.41,2.72,4.2,3.39,4.73,6.2,4.93,14.98-1.86,16.32-.68l3.48,12.71c-9.83,5.41-28.3,8.35-35.77-1.87-.75-1.03-4.82-9.68-4.82-10.26v-41.18c0-.52-10.22.92-10.46-.67.39-2.13-.47-12.77.01-13.26.43-.43,8.61.31,10.45,0v-18.56h17.4Z"/>
      <path class="cls-1" d="M228.54,340.6v18.56h20.88v13.92h-20.88v36.54c0,.41,2.72,4.2,3.39,4.73,6.18,4.91,15.11-1.88,16.33-.68l3.49,12.75c-10.58,5.8-31.49,8.27-37.78-4.55-.71-1.44-2.83-7.7-2.83-8.77v-40.02c0-.52-10.22.92-10.46-.67.39-2.13-.47-12.77.01-13.26.43-.43,8.61.31,10.45,0v-18.56h17.4Z"/>
      <path class="cls-2" d="M334.11,429.92h-17.4v-70.77c2.83,1.27,17.4-3.05,17.4.58v70.19Z"/>
      <path class="cls-2" d="M322.18,328.08c16.48-3.71,18.66,19.24,4.11,20.4-13.29,1.06-15.75-17.78-4.11-20.4Z"/>
    </g>
    <g>
      <path class="cls-1" d="M227.14,0v48.22h17.51c.1,0,1.42,1.32,1.42,1.42v43.49c0,.1-1.32,1.42-1.42,1.42h-17.51v82.73c0,2.69-2.63,12.15-3.54,15.37-12.1,43.1-50.29,71.4-94.89,73.03v-44.44c20.37-1.75,39-12.24,47.99-31,1.62-3.39,5.95-15.48,5.95-18.63v-77.06H50.17v-46.33h132.49V0h44.48Z"/>
      <path class="cls-2" d="M320.84,0v48.22h132.49v46.33h-132.49c1.84,26.8-3.43,58.06,2.36,84.16,5.62,25.33,27.02,41.79,52.53,43.48v43.49c-34.91.13-69.51-19.89-86.28-50.42-20.4-37.12-10.9-81.1-13.09-121.65-1.02-.36-2.07.94-2.36.94h-15.62v-46.33h17.98V0h44.48Z"/>
    </g>
  </g>
</svg>