<?xml version="1.0" encoding="utf-8" ?><svg xmlns="http://www.w3.org/2000/svg" xmlns:xlink="http://www.w3.org/1999/xlink" width="500" height="405" viewBox="0 0 500 405"><path fill="#F9F8F5" transform="scale(2.71739 2.87234)" d="M100.551 0.588936C103.905 1.12039 107.91 0.486522 111.31 0.678879C113.624 0.748564 114.064 2.81555 113.905 4.74475C113.65 7.81975 114.14 11.2108 113.826 14.241C126.229 13.7677 139.511 14.5847 152.044 14.03C151.706 17.0258 151.556 25.2601 152.02 28.1221C143.34 27.4841 133.197 28.0959 124.424 27.8899C121.238 27.815 116.439 28.1988 113.446 27.809C113.868 37.0892 111.684 50.2733 117.045 57.6916C120.026 62.0417 124.863 63.267 129.56 64.5942C129.471 68.5699 129.339 74.1119 129.539 77.9892C128.223 77.6515 126.519 77.2891 125.18 77.0477C111.814 74.6381 101.733 64.6062 100.252 50.964C99.946 48.1412 100.109 44.8177 100.106 41.8966L100.089 27.9758L95.1353 28.072C94.9388 23.5408 95.215 18.8007 94.9961 14.0733C96.9639 14.1328 98.2717 14.057 100.311 14.2369C100.098 11.9598 99.7224 2.01829 100.551 0.588936Z"/><path fill="#D4AF38" transform="scale(2.71739 2.87234)" d="M73.8722 0.705577C78.129 0.758671 82.4553 0.718377 86.7178 0.717353C86.9432 4.75186 86.8608 10.0979 86.7517 14.1667C88.5737 14.1422 90.1562 14.2063 91.9769 14.3003C92.0804 18.8982 92.1006 23.4976 92.0375 28.0963C90.4029 27.8696 88.4921 27.917 86.8249 27.9092C86.732 33.3392 86.8996 38.8703 86.8495 44.2991C86.7436 47.6674 87.1595 51.4684 86.4016 54.7588C84.2181 64.2397 77.1279 72.1669 67.973 75.4432C64.4913 76.6893 61.6063 76.9469 57.9855 77.2562L57.9658 64.4161C60.1919 63.9085 61.7997 63.558 63.9276 62.7652C68.0352 60.8818 70.3023 58.8494 72.2144 54.6527C74.2622 50.1585 73.6647 45.59 73.7009 40.807C73.7338 36.4575 73.5817 32.1641 73.7766 27.8201L49.7626 27.7871C45.4052 27.7888 39.8731 27.6287 35.671 27.9555C35.6516 23.5492 35.6592 19.1427 35.694 14.7365C42.9358 14.5995 50.2543 14.5598 57.5012 14.4675C62.5295 14.4036 68.896 14.7322 73.7847 14.1429C73.611 11.575 73.5161 3.05274 73.8722 0.705577Z"/><path fill="#D4AF38" transform="scale(2.71739 2.87234)" d="M17.1336 96.0839C21.7543 95.4184 27.1754 96.5434 30.9464 99.2857C41.5636 107.007 40.7253 125.979 27.7987 130.969C25.8554 131.719 24.3614 131.935 22.3218 132.26C16.7506 132.511 11.8479 131.913 7.26931 128.426C-1.96316 121.396 -1.42197 105.875 8.01726 99.2792C11.0559 97.1558 13.5611 96.5106 17.1336 96.0839ZM20.3728 126.138C26.9057 125.68 31.8513 120.046 31.4585 113.509C31.0657 106.972 25.4812 101.971 18.9405 102.299C12.3075 102.632 7.22038 108.312 7.61869 114.942C8.017 121.571 13.7477 126.602 20.3728 126.138Z"/><path fill="#F9F8F5" transform="scale(2.71739 2.87234)" d="M149.529 105.213C151.661 104.789 154.787 104.924 157.039 104.97C156.675 108.025 156.743 111.936 156.725 115.063C156.722 119.55 156.502 128.019 156.993 132.102C154.91 131.938 152.695 132.237 150.761 131.939C150.078 131.315 150.125 130.11 150.044 129.114C149.244 128.935 145.986 131.79 144.658 132.045C132.361 134.402 130.516 125.221 130.904 115.399C131.03 112.23 130.984 108.189 131.021 104.994C133.375 104.954 135.73 104.942 138.084 104.956C137.893 107.926 138.143 114.33 137.904 117.184C137.128 126.486 144.269 129.562 149.356 122.626C150.296 121.344 149.295 108.526 149.529 105.213Z"/><path fill="#F9F8F5" transform="scale(2.71739 2.87234)" d="M98.1536 98.2884L105.053 98.306C104.922 100.728 105.065 103.004 104.867 105.524C107.406 105.423 110.409 105.294 112.914 105.41C112.818 107.123 112.814 109.111 112.764 110.847C110.168 111.06 107.439 110.971 104.826 110.934C105.167 114.467 104.716 118.151 104.807 121.691C104.949 127.234 108.104 126.518 111.904 125.154L113.149 128.401C113.286 129.452 113.52 129.863 113.059 130.659C109.36 133.066 101.345 133.106 99.3112 129.017C97.2942 124.962 98.3031 115.74 98.0301 110.975C96.7944 110.861 95.3671 110.61 94.1249 110.422L94.0547 105.547C95.6101 105.357 96.7602 105.285 98.3161 105.224C98.1036 103.417 97.776 100.024 98.1536 98.2884Z"/><path fill="#D4AF38" transform="scale(2.71739 2.87234)" d="M78.5098 98.4919C80.8023 98.5052 83.0948 98.4595 85.3849 98.3549C85.3756 100.739 85.3443 103.123 85.291 105.507C87.7547 105.413 90.5472 105.463 93.0361 105.452C92.9023 107.483 92.9078 108.846 93.0218 110.867C90.4621 110.823 87.8714 110.939 85.3199 110.779C85.3059 114.709 85.2519 118.614 85.3947 122.543C85.5793 127.62 89.0314 126.282 92.4298 125.255L93.2631 128.193L93.7698 130.747C75.6038 137.639 78.541 122.534 78.416 110.871L74.3523 110.482C74.4557 106.337 73.8952 105.286 78.4155 105.408C78.3764 103.148 78.4625 100.762 78.5098 98.4919Z"/><path fill="#F9F8F5" transform="scale(2.71739 2.87234)" d="M120.114 105.126C121.278 104.999 122.945 104.995 124.15 104.955C124.077 110.44 124.047 115.925 124.058 121.41C124.056 124.593 123.94 129.07 124.266 132.114C123.206 132.034 121.952 132.021 120.873 131.982C119.699 131.974 118.363 132.069 117.178 132.126C117.014 123.234 117.276 114.339 117.006 105.414C118.104 105.427 119.028 105.276 120.114 105.126Z"/><path fill="#F9F8F5" transform="scale(2.71739 2.87234)" d="M120.643 93.5548C122.93 93.5361 124.812 95.3509 124.876 97.6373C124.94 99.9236 123.163 101.841 120.878 101.95C119.36 102.023 117.92 101.269 117.115 99.9796C116.31 98.6899 116.264 97.0657 116.996 95.733C117.728 94.4003 119.123 93.5672 120.643 93.5548Z"/><path fill="#D4AF38" transform="scale(2.71739 2.87234)" d="M50.2212 108.692C52.8225 105.841 54.3782 104.921 58.3293 104.459C71.2746 102.944 76.6324 119.906 68.5781 128.581C66.3624 130.955 63.2848 132.337 60.0387 132.417C56.044 132.554 53.3574 130.989 50.4905 128.408C50.6035 132.23 50.6564 137.203 50.4729 141L44.0108 141C43.5021 138.667 43.656 131.318 43.656 128.555L43.67 105.518C45.9729 105.302 48.9477 104.437 50.365 105.548C50.8243 106.428 50.4076 107.638 50.2212 108.692ZM59.0022 126.571C61.4794 125.914 63.1948 125.055 64.5344 122.725C65.7098 120.645 66.0004 118.18 65.341 115.883C64.3447 112.292 61.5082 110.077 57.7705 110.058C56.4436 110.291 54.847 110.545 53.8151 111.412C47.5727 116.653 50.3304 126.717 59.0022 126.571Z"/><path fill="#F9F8F5" transform="scale(2.71739 2.87234)" d="M164.177 123.726C166.907 125.936 176.381 128.681 177.202 124.837C178.285 119.766 158.228 122.416 162.943 109.712C165.74 102.173 181.572 103.906 182.794 107.088C182.877 107.91 181.447 111.996 180.805 111.819C178.025 111.05 170.727 108.277 168.867 112.074C169.571 116.696 180.407 114.386 184 121.755L184 126.438C179.858 134.973 167.851 133.24 161.222 128.83C162.156 127.1 163.141 125.398 164.177 123.726Z"/></svg>