<?xml version="1.0" encoding="UTF-8"?>
<svg id="Layer_2" data-name="Layer 2" xmlns="http://www.w3.org/2000/svg" viewBox="0 0 182.96 143.37">
  <defs>
    <style>
      .cls-1 {
        fill: #10182a;
      }

      .cls-2 {
        fill: #f8fbfd;
      }

      .cls-3 {
        fill: #ad1e23;
      }
    </style>
  </defs>
  <g id="Layer_1-2" data-name="Layer 1">
    <g>
      <path class="cls-1" d="M16.14,99.04c25.61-2.83,28.28,33.37,5.81,35.73-27.51,2.88-28.85-33.19-5.81-35.73ZM9.98,125.7c4.78,5.04,14.02,4.7,18.22-.92,7.74-10.33-3.16-24.62-15.25-18.67-6.95,3.42-8.19,14.09-2.98,19.58Z"/>
      <path class="cls-1" d="M49.57,130.55v12.82h-6.41v-34.83c0-.83,6.18-.88,6.41-.64.32.32-.59,3.56.42,3.85.89-2.5,4.56-4.07,7.04-4.29,19.29-1.72,18.98,30.06-.8,27.33-2.8-.39-4.85-2.31-6.66-4.24ZM62.67,114.89c-4.07-4.09-11.7-2.24-12.9,3.67-2.87,14.07,16.39,14.77,15.22,1.5-.15-1.74-1.1-3.94-2.31-5.16Z"/>
      <path class="cls-3" d="M136.76,107.9v15.6c0,.57.94,3.18,1.35,3.78,2.71,3.93,10.29,1.75,11.02-2.95.41-2.69-.54-14.95.21-16.03.61-.87,4.96-.19,6.22-.4v26.5h-5.98c-.19,0,.14-3.37,0-3.85-1.9,2.09-4.12,3.94-7.05,4.27-15.86,1.81-11.67-16.21-12.12-26.23.45-1.36,5.05-.44,6.35-.7Z"/>
      <path class="cls-3" d="M182.01,109.66c.43.69-1.45,4.97-1.89,5.06-.32.07-2.73-1.26-3.6-1.49-2.33-.62-10.54-1.25-8.08,2.94,2.12,3.61,13.15,1.82,14.38,9.14,1.96,11.68-15.81,11.69-21.93,6.1-.35-.54,2.15-4.66,2.59-4.66,2.29,2.88,14.76,5.29,12.96-.6-.94-3.06-13.13-1.67-14.35-8.73-1.93-11.23,12.91-11.69,19.93-7.75Z"/>
      <path class="cls-3" d="M103.85,101.49v6.84h7.69c-.08.91.37,5.13-.64,5.13h-7.05v13.46c0,.15,1,1.55,1.25,1.74,2.28,1.81,5.52-.69,6.01-.25l1.28,4.68c-3.62,1.99-10.43,3.08-13.18-.69-.28-.38-1.77-3.57-1.77-3.78v-15.17c0-.19-3.77.34-3.85-.25.14-.78-.17-4.71,0-4.88.16-.16,3.17.12,3.85,0v-6.84h6.41Z"/>
      <path class="cls-1" d="M84.19,101.49v6.84h7.69v5.13h-7.69v13.46c0,.15,1,1.55,1.25,1.74,2.28,1.81,5.57-.69,6.02-.25l1.29,4.7c-3.9,2.14-11.6,3.05-13.92-1.68-.26-.53-1.04-2.84-1.04-3.23v-14.74c0-.19-3.77.34-3.85-.25.14-.78-.17-4.71,0-4.88.16-.16,3.17.12,3.85,0v-6.84h6.41Z"/>
      <path class="cls-3" d="M123.08,134.4h-6.41v-26.07c1.04.47,6.41-1.12,6.41.21v25.86Z"/>
      <path class="cls-3" d="M118.69,96.88c6.07-1.37,6.87,7.09,1.52,7.52-4.9.39-5.8-6.55-1.52-7.52Z"/>
    </g>
    <g>
      <path class="cls-2" d="M80.89,0h-15.08v16.35H20.89v15.71h44.92v26.13c0,1.07-1.47,5.17-2.02,6.32-3.05,6.36-9.36,9.92-16.27,10.51v15.07c15.12-.55,28.07-10.15,32.17-24.76.31-1.09,1.2-4.3,1.2-5.21v-28.05h5.94s.48-.45.48-.48v-14.75s-.45-.48-.48-.48h-5.94V0ZM112.66,0h-15.08v16.35h-6.1v15.71h5.29c.1,0,.45-.44.8-.32.74,13.75-2.48,28.66,4.44,41.25,5.69,10.35,17.42,17.14,29.25,17.1v-14.75c-8.65-.57-15.91-6.16-17.81-14.74-1.96-8.85-.17-19.45-.8-28.53h44.92v-15.71h-44.92V0Z"/>
      <path class="cls-1" d="M80.89,0v16.35h5.94s.48.45.48.48v14.75s-.45.48-.48.48h-5.94v28.05c0,.91-.89,4.12-1.2,5.21-4.1,14.61-17.05,24.21-32.17,24.76v-15.07c6.91-.59,13.22-4.15,16.27-10.51.55-1.15,2.02-5.25,2.02-6.32v-26.13H20.89v-15.71h44.92V0h15.08Z"/>
      <path class="cls-3" d="M112.66,0v16.35h44.92v15.71h-44.92c.63,9.09-1.16,19.69.8,28.53,1.9,8.59,9.16,14.17,17.81,14.74v14.75c-11.83.04-23.57-6.74-29.25-17.1-6.92-12.58-3.7-27.5-4.44-41.25-.35-.12-.7.32-.8.32h-5.29v-15.71h6.1V0h15.08Z"/>
    </g>
  </g>
</svg>