<?xml version="1.0" encoding="utf-8" ?><svg xmlns="http://www.w3.org/2000/svg" xmlns:xlink="http://www.w3.org/1999/xlink" width="800" height="800" viewBox="0 0 800 800"><path fill="#1A2B23" transform="scale(4.34783 4.34783)" d="M85.7955 0L97.7046 0C98.9893 0.618251 103.18 0.886573 104.801 1.06396C109.255 1.55161 113.356 2.38815 117.662 3.66006C145.023 11.5713 167.188 31.6912 177.703 58.1614C180.162 64.3457 181.583 69.6782 182.823 76.183C183.164 77.9775 183.523 82.6617 184 83.8075L184 100.375L183.967 100.475C183.336 102.437 183.265 104.769 182.931 106.824C178.312 135.185 160.931 160.235 135.192 173.334C125.53 178.25 115.429 181.44 104.682 183.094C102.712 183.397 100.577 183.255 98.7024 184L84.1322 184C82.8224 183.469 75.9895 182.46 73.9608 182.075C67.8646 180.963 61.9064 179.195 56.1898 176.803C31.8284 166.675 13.0308 146.516 4.62916 121.507C3.23555 117.253 2.09822 112.92 1.22327 108.53C0.819831 106.431 0.777706 103.018 0.0308173 101.214L0 101.142L0 84.3247C0.66958 83.0573 1.23144 75.6122 1.78451 73.4217C2.93254 68.6045 4.45378 63.4604 6.21464 58.8696C17.9536 28.2644 45.1233 5.73623 77.6757 1.05075C79.8681 0.735179 83.8928 0.913653 85.7955 0Z"/><path fill="#F9F7F2" transform="scale(4.34783 4.34783)" d="M68.4519 47.1403C72.5906 47.398 79.4971 47.1824 83.8142 47.1962L83.8328 63.6635C85.9527 63.6279 88.1706 63.6746 90.2996 63.6916C90.5186 68.5154 90.3985 74.8517 90.3061 79.7323C88.1403 79.7911 85.9748 79.8627 83.8098 79.947C83.6595 88.7158 84.0055 97.5865 83.7861 106.351C83.6079 113.47 80.1845 120.893 75.4996 126.196C68.834 133.74 60.0537 137.247 50.1959 137.848C50.2006 133.25 50.3891 126.749 50.0754 122.306C52.4332 122.147 54.4237 121.528 56.6326 120.795C59.2153 119.672 61.21 118.366 63.1986 116.364C69.0825 110.442 68.3449 103.435 68.3421 95.8725C68.3525 90.5302 68.3342 85.1878 68.2872 79.8457L23.3423 79.7986C23.2478 74.5055 23.3545 68.9996 23.32 63.6793C38.0936 63.4494 53.491 63.6447 68.3109 63.6707C68.3102 58.5238 68.1514 52.1883 68.4519 47.1403Z"/><path fill="#D4AF37" transform="scale(4.34783 4.34783)" d="M100.189 47.2148L115.545 47.2013L115.622 63.7145L160.543 63.6924C160.661 68.9152 160.555 74.5303 160.553 79.7837C145.663 79.8725 130.62 79.6063 115.75 79.8456C115.875 90.4102 113.792 105.621 119.095 114.237C119.155 114.328 119.218 114.418 119.283 114.506C123.308 120.03 127.858 121.734 134.3 122.767L134.278 137.917C117.593 136.897 104.34 127.459 101.054 110.361C100.062 105.201 100.174 100.567 100.169 95.3441L100.171 79.7541L94.2011 79.8305C94.1689 74.4562 94.1647 69.0818 94.1882 63.7075C96.1561 63.6793 98.1921 63.7054 100.166 63.7077C100.264 58.292 100.187 52.6483 100.189 47.2148Z"/></svg>