<?xml version="1.0" encoding="UTF-8"?>
<svg id="Layer_2" data-name="Layer 2" xmlns="http://www.w3.org/2000/svg" viewBox="0 0 121.07 120.78">
  <defs>
    <style>
      .cls-1 {
        fill: #10182a;
      }

      .cls-2 {
        fill: #f8fbfd;
      }

      .cls-3 {
        fill: #ad1e23;
      }
    </style>
  </defs>
  <g id="Layer_1-2" data-name="Layer 1">
    <g>
      <path class="cls-2" d="M56.71.1c43.63-2.48,75.39,39.63,60.73,80.94-16.26,45.81-78.43,53.95-106.43,14.23C-16.11,56.82,9.81,2.77,56.71.1ZM55.07,31.09h-9.94v10.77H15.53v10.35h29.6v17.21c0,.71-.97,3.41-1.33,4.16-2.01,4.19-6.17,6.54-10.72,6.93v9.93c9.96-.36,18.49-6.69,21.2-16.31.2-.72.79-2.83.79-3.43v-18.48h3.91s.32-.29.32-.32v-9.72s-.29-.32-.32-.32h-3.91v-10.77ZM76,31.09h-9.94v10.77h-4.02v10.35h3.49c.07,0,.3-.29.53-.21.49,9.06-1.63,18.88,2.93,27.18,3.75,6.82,11.48,11.29,19.28,11.26v-9.72c-5.7-.38-10.48-4.06-11.74-9.71s-.11-12.81-.53-18.8h29.6v-10.35h-29.6v-10.77Z"/>
      <path class="cls-1" d="M55.07,31.09v10.77h3.91s.32.29.32.32v9.72s-.29.32-.32.32h-3.91v18.48c0,.6-.59,2.71-.79,3.43-2.7,9.63-11.23,15.95-21.2,16.31v-9.93c4.55-.39,8.71-2.74,10.72-6.93.36-.76,1.33-3.46,1.33-4.16v-17.21H15.53v-10.35h29.6v-10.77h9.94Z"/>
      <path class="cls-3" d="M76,31.09v10.77h29.6v10.35h-29.6c.41,5.99-.77,12.97.53,18.8s6.04,9.34,11.74,9.71v9.72c-7.8.03-15.53-4.44-19.28-11.26-4.56-8.29-2.44-18.12-2.93-27.18-.23-.08-.46.21-.53.21h-3.49v-10.35h4.02v-10.77h9.94Z"/>
    </g>
  </g>
</svg>